<?xml version="1.0" encoding="UTF-8" standalone="yes"?>
<svg xmlns="http://www.w3.org/2000/svg" xmlns:xlink="http://www.w3.org/1999/xlink" width="100px" height="100px" viewBox="0 0 100 100" version="1.1" fill="#000000">
  <g id="surface436343">
    <path style=" stroke:none;fill-rule:nonzero;fill:#000000;fill-opacity:1;" d="M 53.472656 2.121094 C 53.3125 2.109375 53.144531 2.117188 52.980469 2.140625 C 42.960938 3.820312 40.800781 12.199219 39.980469 15.339844 C 39.960938 15.378906 39.960938 15.441406 39.941406 15.480469 C 37.082031 17.320312 33.660156 20.378906 31.28125 22.738281 C 23.78125 30.257812 21.621094 42.179688 25.78125 53.160156 C 26.082031 53.898438 26.421875 54.699219 26.820312 55.578125 C 27.839844 57.917969 29.0625 60.679688 29.640625 64 L 71.578125 64 C 69.699219 54.980469 61.960938 47.660156 57.441406 43.421875 C 58.5625 43.023438 59.5625 42.238281 60.460938 41.539062 C 61.082031 41.078125 62.101562 40.300781 62.460938 40.28125 C 63.839844 40.28125 64.238281 40.742188 65.039062 41.640625 C 65.917969 42.640625 67.222656 44.140625 69.921875 44.140625 C 72.960938 44.140625 74.558594 41.722656 75.519531 40.261719 C 75.71875 39.960938 75.898438 39.679688 76.078125 39.460938 C 76.179688 39.339844 76.617188 39.160156 76.898438 39.019531 C 77.796875 38.621094 79.140625 38.019531 79.699219 36.5 C 80.160156 35.300781 80 33.941406 79.179688 32.179688 C 78.078125 29.738281 73.820312 21.539062 65.421875 18.078125 C 64.941406 17.878906 64.796875 17.660156 64.398438 16.921875 C 63.136719 14.640625 61.519531 12.738281 54.839844 12.5 C 54.621094 10.839844 54.679688 7.480469 55.28125 4.5 C 55.402344 3.859375 55.222656 3.199219 54.761719 2.71875 C 54.417969 2.359375 53.957031 2.15625 53.472656 2.121094 Z M 24 68 C 20.679688 68 18 70.679688 18 74 C 18 77.320312 20.679688 80 24 80 L 75.339844 80 C 78.640625 80 81.339844 77.320312 81.339844 74 C 81.339844 70.679688 78.640625 68 75.339844 68 Z M 21.71875 84 C 18.160156 87.339844 15.082031 91.757812 16.261719 95.058594 C 16.640625 96.160156 17.84375 98 21.421875 98 L 78.578125 98 C 82.179688 98 83.359375 96.15625 83.738281 95.078125 C 84.917969 91.757812 81.820312 87.339844 78.261719 84 Z M 21.71875 84 "/>
  </g>
</svg>