<?xml version="1.0" encoding="UTF-8" standalone="yes"?>
<svg xmlns="http://www.w3.org/2000/svg" xmlns:xlink="http://www.w3.org/1999/xlink" width="100px" height="100px" viewBox="0 0 100 100" version="1.1" fill="#000000">
  <g id="surface435971">
    <path style=" stroke:none;fill-rule:nonzero;fill:#000000;fill-opacity:1;" d="M 50 0 C 45.585938 0 42 3.585938 42 8 C 42 9.226562 42.320312 10.398438 42.8125 11.4375 C 42.59375 11.617188 42.367188 11.804688 42.125 12.0625 C 37.984375 16.164062 30 25.070312 30 32.8125 C 30 33.710938 30.09375 34.578125 30.1875 35.4375 C 30.210938 35.609375 30.226562 35.765625 30.25 35.9375 C 30.804688 40.015625 32.429688 43.609375 35.1875 46.625 C 34.429688 47.578125 34 48.726562 34 50 C 34 53.398438 37.203125 56 41 56 L 59 56 C 62.796875 56 66 53.398438 66 50 C 66 48.765625 65.59375 47.625 64.875 46.6875 C 64.945312 46.632812 65 46.625 65.0625 46.5625 C 67.609375 43.8125 69.203125 40.195312 69.75 36.125 C 69.773438 35.960938 69.796875 35.789062 69.8125 35.625 C 69.914062 34.773438 70 33.882812 70 33 C 70 25.90625 63.515625 17.78125 57.875 12.0625 C 57.625 11.8125 57.414062 11.601562 57.1875 11.4375 C 57.695312 10.390625 58 9.242188 58 8 C 58 3.585938 54.414062 0 50 0 Z M 50 4 C 52.203125 4 54 5.796875 54 8 C 54 10.203125 52.203125 12 50 12 C 47.796875 12 46 10.203125 46 8 C 46 5.796875 47.796875 4 50 4 Z M 36.25 59 C 34.6875 61.289062 32.953125 62.898438 31.375 64.375 C 30.125 65.539062 28.921875 66.695312 28.0625 68 C 27.296875 69.148438 26.8125 70.4375 26.8125 72 L 25 72 C 21.203125 72 18 74.601562 18 78 C 18 81.398438 21.203125 84 25 84 L 75 84 C 78.796875 84 82 81.398438 82 78 C 82 74.601562 78.796875 72 75 72 L 73.1875 72 C 73.1875 70.429688 72.703125 69.148438 71.9375 68 C 71.0625 66.6875 69.828125 65.546875 68.5625 64.375 C 66.96875 62.90625 65.242188 61.304688 63.6875 59.0625 C 62.257812 59.671875 60.679688 60 59 60 L 41 60 C 39.289062 60 37.695312 59.632812 36.25 59 Z M 19.8125 86.8125 C 17.054688 90.234375 15.117188 94.125 16.25 97.0625 C 16.671875 98.164062 17.882812 100 21.375 100 L 78.625 100 C 81.992188 100 83.203125 98.195312 83.625 97.125 C 84.773438 94.21875 82.84375 90.273438 80.125 86.8125 C 78.585938 87.554688 76.859375 88 75 88 L 25 88 C 23.117188 88 21.359375 87.578125 19.8125 86.8125 Z M 19.8125 86.8125 "/>
  </g>
</svg>