<?xml version="1.0" encoding="UTF-8" standalone="yes"?>
<svg xmlns="http://www.w3.org/2000/svg" xmlns:xlink="http://www.w3.org/1999/xlink" width="100px" height="100px" viewBox="0 0 100 100" version="1.1" fill="#000000">
  <g id="surface433444">
    <path style=" stroke:none;fill-rule:nonzero;fill:#000000;fill-opacity:1;" d="M 50 16 C 42.265625 16 36 22.265625 36 30 C 36 37.734375 42.265625 44 50 44 C 57.734375 44 64 37.734375 64 30 C 64 22.265625 57.734375 16 50 16 Z M 50 44 L 41 44 C 37.203125 44 34 46.601562 34 50 C 34 53.398438 37.203125 56 41 56 L 59 56 C 62.796875 56 66 53.398438 66 50 C 66 46.601562 62.796875 44 59 44 Z M 35.875 58.8125 C 35.085938 59.929688 34.242188 60.976562 33.375 61.875 C 30.46875 64.90625 26 67.5625 26 72 L 25 72 C 21.203125 72 18 74.601562 18 78 C 18 81.398438 21.203125 84 25 84 L 75 84 C 78.796875 84 82 81.398438 82 78 C 82 74.601562 78.796875 72 75 72 L 74 72 C 74 67.09375 69.1875 64.9375 65.6875 60.875 C 65.351562 60.484375 64.75 59.695312 64.125 58.8125 C 62.59375 59.546875 60.851562 60 59 60 L 41 60 C 39.148438 60 37.40625 59.546875 35.875 58.8125 Z M 19.8125 86.8125 C 17.054688 90.234375 15.117188 94.125 16.25 97.0625 C 16.671875 98.164062 17.882812 100 21.375 100 L 78.625 100 C 81.992188 100 83.203125 98.195312 83.625 97.125 C 84.773438 94.21875 82.84375 90.273438 80.125 86.8125 C 78.585938 87.554688 76.859375 88 75 88 L 25 88 C 23.117188 88 21.359375 87.578125 19.8125 86.8125 Z M 19.8125 86.8125 "/>
  </g>
</svg>