<?xml version="1.0" encoding="UTF-8" standalone="yes"?>
<svg xmlns="http://www.w3.org/2000/svg" xmlns:xlink="http://www.w3.org/1999/xlink" width="100px" height="100px" viewBox="0 0 100 100" version="1.1" fill="#000000">
  <g id="surface434464">
    <path style=" stroke:none;fill-rule:nonzero;fill:#000000;fill-opacity:1;" d="M 50 0 C 45.585938 0 42 3.585938 42 8 C 42 10 42.78125 11.78125 44 13.1875 C 42.429688 14.640625 39.648438 17.546875 37.5625 21.75 C 35.960938 19.921875 34.195312 18.8125 32.8125 18.125 C 33.546875 16.914062 34 15.515625 34 14 C 34 9.585938 30.414062 6 26 6 C 21.585938 6 18 9.585938 18 14 C 18 17.726562 20.546875 20.867188 24 21.75 C 24.226562 32.398438 30.445312 38 42 38 L 58 38 C 69.554688 38 75.773438 32.398438 76 21.75 C 79.453125 20.867188 82 17.726562 82 14 C 82 9.585938 78.414062 6 74 6 C 69.585938 6 66 9.585938 66 14 C 66 15.515625 66.453125 16.914062 67.1875 18.125 C 65.804688 18.804688 64.039062 19.921875 62.4375 21.75 C 60.351562 17.546875 57.570312 14.640625 56 13.1875 C 57.21875 11.78125 58 10 58 8 C 58 3.585938 54.414062 0 50 0 Z M 50 4 C 52.203125 4 54 5.796875 54 8 C 54 10.203125 52.203125 12 50 12 C 47.796875 12 46 10.203125 46 8 C 46 5.796875 47.796875 4 50 4 Z M 26 10 C 28.203125 10 30 11.796875 30 14 C 30 16.203125 28.203125 18 26 18 C 23.796875 18 22 16.203125 22 14 C 22 11.796875 23.796875 10 26 10 Z M 74 10 C 76.203125 10 78 11.796875 78 14 C 78 16.203125 76.203125 18 74 18 C 71.796875 18 70 16.203125 70 14 C 70 11.796875 71.796875 10 74 10 Z M 41.6875 42 C 41.671875 42.125 41.703125 42.25 41.6875 42.375 C 41.625 42.921875 41.515625 43.460938 41.4375 44 L 35 44 C 31.203125 44 28 46.601562 28 50 C 28 53.398438 31.203125 56 35 56 L 65 56 C 68.796875 56 72 53.398438 72 50 C 72 46.601562 68.796875 44 65 44 L 58.625 44 C 58.5 43.40625 58.367188 42.820312 58.3125 42.3125 C 58.296875 42.195312 58.328125 42.117188 58.3125 42 C 58.210938 42 58.101562 42 58 42 L 42 42 C 41.898438 42 41.789062 42 41.6875 42 Z M 33.9375 59.9375 C 33.164062 60.71875 32.421875 61.445312 31.6875 62.125 C 28.765625 64.820312 26 67.382812 26 72 L 25 72 C 21.203125 72 18 74.601562 18 78 C 18 81.398438 21.203125 84 25 84 L 75 84 C 78.796875 84 82 81.398438 82 78 C 82 74.601562 78.796875 72 75 72 L 74 72 C 74 67.382812 71.234375 64.820312 68.3125 62.125 C 67.578125 61.445312 66.773438 60.71875 66 59.9375 C 65.664062 59.96875 65.351562 60 65 60 L 35 60 C 34.648438 60 34.28125 59.960938 33.9375 59.9375 Z M 19.8125 86.8125 C 17.054688 90.234375 15.117188 94.125 16.25 97.0625 C 16.671875 98.164062 17.882812 100 21.375 100 L 78.625 100 C 81.992188 100 83.203125 98.195312 83.625 97.125 C 84.773438 94.21875 82.84375 90.273438 80.125 86.8125 C 78.585938 87.554688 76.859375 88 75 88 L 25 88 C 23.117188 88 21.359375 87.578125 19.8125 86.8125 Z M 19.8125 86.8125 "/>
  </g>
</svg>