<?xml version="1.0" encoding="UTF-8" standalone="yes"?>
<svg xmlns="http://www.w3.org/2000/svg" xmlns:xlink="http://www.w3.org/1999/xlink" width="100px" height="100px" viewBox="0 0 100 100" version="1.1" fill="#000000">
  <g id="surface436339">
    <path style=" stroke:none;fill-rule:nonzero;fill:#000000;fill-opacity:1;" d="M 30 6 C 26.695312 6 24 8.695312 24 12 L 24 32 C 24 35.304688 26.695312 38 30 38 L 70 38 C 73.304688 38 76 35.304688 76 32 L 76 12 C 76 8.695312 73.304688 6 70 6 L 68 6 C 66.890625 6 66 6.898438 66 8 L 66 16 C 65.976562 16.921875 66 20 62 20 C 58 20 58.023438 16.898438 58 16 L 58 8 C 58 6.898438 57.109375 6 56 6 L 44 6 C 42.898438 6 42 6.898438 42 8 L 42 16 C 41.976562 16.921875 42 20 38 20 C 34 20 34.023438 16.898438 34 16 L 34 8 C 34 6.898438 33.101562 6 32 6 Z M 40 42 L 40 44.0625 C 36.65625 44.476562 34 46.90625 34 50 C 34 53.398438 37.203125 56 41 56 L 59 56 C 62.796875 56 66 53.398438 66 50 C 66 46.90625 63.34375 44.476562 60 44.0625 L 60 42 Z M 35.5 60 C 34.859375 60.992188 33.695312 62.117188 32.9375 62.8125 C 30.96875 65 26.8125 67.382812 26.8125 72 L 25 72 C 21.203125 72 18 74.601562 18 78 C 18 81.398438 21.203125 84 25 84 L 75 84 C 78.796875 84 82 81.398438 82 78 C 82 74.601562 78.796875 72 75 72 L 73.1875 72 C 73.1875 67.382812 68.5 64.6875 66.625 62.4375 C 65.890625 61.757812 65.265625 60.945312 64.4375 60 C 64.09375 60.03125 63.726562 60 63.375 60 L 36.5 60 C 36.148438 60 35.84375 60.023438 35.5 60 Z M 19.8125 86.8125 C 17.054688 90.234375 15.117188 94.125 16.25 97.0625 C 16.671875 98.164062 17.882812 100 21.375 100 L 78.625 100 C 81.992188 100 83.203125 98.195312 83.625 97.125 C 84.773438 94.21875 82.84375 90.273438 80.125 86.8125 C 78.585938 87.554688 76.859375 88 75 88 L 25 88 C 23.117188 88 21.359375 87.578125 19.8125 86.8125 Z M 19.8125 86.8125 "/>
  </g>
</svg>