<?xml version="1.0" encoding="UTF-8" standalone="yes"?>
<svg xmlns="http://www.w3.org/2000/svg" xmlns:xlink="http://www.w3.org/1999/xlink" width="100px" height="100px" viewBox="0 0 100 100" version="1.1" fill="#000000">
  <g id="surface433448">
    <path style=" stroke:none;fill-rule:nonzero;fill:#000000;fill-opacity:1;" d="M 50 0 C 45.601562 0 42 3.601562 42 8 C 42 9.492188 42.460938 10.859375 43.1875 12.0625 L 24.625 12.0625 C 21.945312 12.0625 20.835938 13.59375 20.4375 14.5 C 18.914062 17.953125 22.023438 23.59375 25.75 27.6875 L 28.75 31.0625 C 31.414062 33.984375 34.992188 35.9375 37.625 35.9375 L 62.375 35.9375 C 65.015625 35.9375 68.59375 33.984375 71.25 31.0625 L 74.25 27.75 C 77.96875 23.65625 81.09375 17.953125 79.5625 14.5 C 79.164062 13.59375 78.054688 12.0625 75.375 12.0625 L 56.8125 12.0625 C 57.539062 10.859375 58 9.492188 58 8 C 58 3.601562 54.398438 0 50 0 Z M 50 4 C 52.234375 4 54 5.765625 54 8 C 54 10.234375 52.234375 12 50 12 C 47.765625 12 46 10.234375 46 8 C 46 5.765625 47.765625 4 50 4 Z M 41.875 40 C 41.828125 40.828125 41.773438 41.59375 41.6875 42.375 C 41.625 42.921875 41.515625 43.460938 41.4375 44 L 35 44 C 31.203125 44 28 46.601562 28 50 C 28 53.398438 31.203125 56 35 56 L 65 56 C 68.796875 56 72 53.398438 72 50 C 72 46.601562 68.796875 44 65 44 L 58.625 44 C 58.5 43.40625 58.367188 42.820312 58.3125 42.3125 C 58.234375 41.546875 58.179688 40.8125 58.125 40 Z M 33.9375 59.9375 C 33.164062 60.71875 32.421875 61.445312 31.6875 62.125 C 28.765625 64.820312 26 67.382812 26 72 L 25 72 C 21.203125 72 18 74.601562 18 78 C 18 81.398438 21.203125 84 25 84 L 75 84 C 78.796875 84 82 81.398438 82 78 C 82 74.601562 78.796875 72 75 72 L 74 72 C 74 67.382812 71.234375 64.820312 68.3125 62.125 C 67.578125 61.445312 66.773438 60.71875 66 59.9375 C 65.664062 59.96875 65.351562 60 65 60 L 35 60 C 34.648438 60 34.28125 59.960938 33.9375 59.9375 Z M 19.8125 86.8125 C 17.054688 90.234375 15.117188 94.125 16.25 97.0625 C 16.671875 98.164062 17.882812 100 21.375 100 L 78.625 100 C 81.992188 100 83.203125 98.195312 83.625 97.125 C 84.773438 94.21875 82.84375 90.273438 80.125 86.8125 C 78.585938 87.554688 76.859375 88 75 88 L 25 88 C 23.117188 88 21.359375 87.578125 19.8125 86.8125 Z M 19.8125 86.8125 "/>
  </g>
</svg>