<?xml version="1.0" encoding="UTF-8" standalone="yes"?>
<svg xmlns="http://www.w3.org/2000/svg" xmlns:xlink="http://www.w3.org/1999/xlink" width="100px" height="100px" viewBox="0 0 100 100" version="1.1" fill="#000000">
  <g id="surface437283">
    <path style=" stroke:none;fill-rule:nonzero;fill:#000000;fill-opacity:1;" d="M 50 0 C 45.601562 0 42 3.601562 42 8 C 42 10.023438 42.804688 11.835938 44.0625 13.25 C 42.539062 14.734375 39.757812 17.703125 37.625 22.0625 C 36 20.171875 34.15625 19 32.75 18.25 C 33.539062 17.015625 34 15.5625 34 14 C 34 9.601562 30.398438 6 26 6 C 21.601562 6 18 9.601562 18 14 C 18 17.703125 20.5625 20.796875 24 21.6875 C 24.09375 26.648438 25.492188 30.828125 28.5 33.6875 C 31.609375 36.640625 36.179688 37.992188 41.9375 38 C 41.898438 39.414062 41.875 40.757812 41.75 42 L 37 42 C 32.203125 42 28 45.429688 28 50 C 28 54.1875 31.539062 57.421875 35.8125 57.9375 C 34.078125 60.054688 32.21875 61.609375 30.5 63.25 C 28.59375 65.0625 26.835938 67.210938 26.25 70.0625 C 21.789062 70.28125 18 73.632812 18 78 C 18 80.757812 19.515625 83.132812 21.75 84.5625 C 19.171875 87.265625 17.195312 90.109375 16.375 92.8125 C 15.875 94.445312 15.765625 96.21875 16.6875 97.75 C 17.609375 99.28125 19.453125 100 21.4375 100 L 78.5625 100 C 80.546875 100 82.453125 99.28125 83.375 97.75 C 84.296875 96.21875 84.125 94.445312 83.625 92.8125 C 82.796875 90.109375 80.835938 87.265625 78.25 84.5625 C 80.484375 83.132812 82 80.757812 82 78 C 82 73.632812 78.210938 70.28125 73.75 70.0625 C 73.164062 67.21875 71.398438 65.0625 69.5 63.25 C 67.78125 61.617188 65.921875 60.054688 64.1875 57.9375 C 68.460938 57.421875 72 54.1875 72 50 C 72 45.421875 67.789062 42 63 42 L 58.3125 42 C 58.1875 40.757812 58.101562 39.414062 58.0625 38 C 63.820312 37.992188 68.390625 36.640625 71.5 33.6875 C 74.507812 30.828125 75.90625 26.648438 76 21.6875 C 79.4375 20.796875 82 17.703125 82 14 C 82 9.601562 78.398438 6 74 6 C 69.601562 6 66 9.601562 66 14 C 66 15.5625 66.460938 17.015625 67.25 18.25 C 65.84375 19 64 20.171875 62.375 22.0625 C 60.242188 17.703125 57.460938 14.734375 55.9375 13.25 C 57.195312 11.835938 58 10.023438 58 8 C 58 3.601562 54.398438 0 50 0 Z M 50 4 C 52.234375 4 54 5.765625 54 8 C 54 10.234375 52.234375 12 50 12 C 47.765625 12 46 10.234375 46 8 C 46 5.765625 47.765625 4 50 4 Z M 26 10 C 28.234375 10 30 11.765625 30 14 C 30 16.234375 28.234375 18 26 18 C 23.765625 18 22 16.234375 22 14 C 22 11.765625 23.765625 10 26 10 Z M 74 10 C 76.234375 10 78 11.765625 78 14 C 78 16.234375 76.234375 18 74 18 C 71.765625 18 70 16.234375 70 14 C 70 11.765625 71.765625 10 74 10 Z M 47.375 15.5 C 48.195312 15.789062 49.085938 16 50 16 C 50.914062 16 51.804688 15.789062 52.625 15.5 C 53.273438 16.023438 57.96875 20 60.125 26.625 C 60.382812 27.390625 61.078125 27.929688 61.882812 27.984375 C 62.695312 28.039062 63.453125 27.601562 63.8125 26.875 C 66.15625 22.101562 70.4375 21.125 70.4375 21.125 C 70.9375 21.375 71.445312 21.546875 72 21.6875 C 71.90625 25.882812 70.804688 28.796875 68.75 30.75 C 66.601562 32.789062 63.15625 34 58 34 L 56.4375 34 C 56.234375 33.945312 56.023438 33.921875 55.8125 33.9375 C 55.75 33.953125 55.6875 33.976562 55.625 34 L 44.4375 34 C 44.234375 33.945312 44.023438 33.921875 43.8125 33.9375 C 43.75 33.953125 43.6875 33.976562 43.625 34 L 42 34 C 36.84375 34 33.398438 32.789062 31.25 30.75 C 29.195312 28.796875 28.09375 25.882812 28 21.6875 C 28.554688 21.546875 29.0625 21.375 29.5625 21.125 C 29.5625 21.125 33.84375 22.101562 36.1875 26.875 C 36.546875 27.601562 37.304688 28.039062 38.117188 27.984375 C 38.921875 27.929688 39.617188 27.390625 39.875 26.625 C 42.03125 20 46.726562 16.023438 47.375 15.5 Z M 45.9375 38 L 54.0625 38 C 54.09375 39.398438 54.132812 40.742188 54.25 42 L 45.6875 42 C 45.8125 40.742188 45.890625 39.398438 45.9375 38 Z M 37 46 L 63 46 C 65.9375 46 68 47.953125 68 50 C 68 52.046875 65.9375 54 63 54 L 37 54 C 34.0625 54 32 52.046875 32 50 C 32 47.953125 34.0625 46 37 46 Z M 40.6875 58 L 59.3125 58 C 61.804688 61.84375 64.695312 64.226562 66.75 66.1875 C 68.234375 67.59375 69.21875 68.640625 69.6875 70 L 30.3125 70 C 30.78125 68.648438 31.765625 67.601562 33.25 66.1875 C 35.3125 64.226562 38.195312 61.859375 40.6875 58 Z M 26.6875 74 L 73.3125 74 C 76.023438 74 78 75.890625 78 78 C 78 80.109375 76.015625 82 73.3125 82 L 26.6875 82 C 23.984375 82 22 80.109375 22 78 C 22 75.890625 23.984375 74 26.6875 74 Z M 26 85.9375 C 26.234375 85.953125 26.453125 86 26.6875 86 L 73.3125 86 C 73.546875 86 73.765625 85.953125 74 85.9375 C 76.976562 88.71875 79.1875 91.960938 79.8125 94 C 80.132812 95.03125 79.992188 95.59375 79.9375 95.6875 C 79.882812 95.78125 79.734375 96 78.5625 96 L 21.4375 96 C 20.265625 96 20.117188 95.78125 20.0625 95.6875 C 20.007812 95.59375 19.875 95.03125 20.1875 94 C 20.804688 91.960938 23.03125 88.71875 26 85.9375 Z M 26 85.9375 "/>
  </g>
</svg>