<?xml version="1.0" encoding="UTF-8" standalone="yes"?>
<svg xmlns="http://www.w3.org/2000/svg" xmlns:xlink="http://www.w3.org/1999/xlink" width="100px" height="100px" viewBox="0 0 100 100" version="1.1" fill="#000000">
  <g id="surface437287">
    <path style=" stroke:none;fill-rule:nonzero;fill:#000000;fill-opacity:1;" d="M 50 0 C 45.601562 0 42 3.601562 42 8 C 42 9.210938 42.320312 10.34375 42.8125 11.375 C 40.039062 14.046875 36.929688 17.492188 34.4375 21.1875 C 31.945312 24.882812 30 28.828125 30 32.8125 C 30 38.671875 32.085938 43.101562 35 46.375 C 34.375 47.453125 34 48.65625 34 50 C 34 52.765625 35.53125 55.023438 37.75 56.4375 C 35.875 60.132812 33.539062 62.351562 31.4375 64.3125 C 30.304688 65.375 29.265625 66.359375 28.375 67.5625 C 27.851562 68.273438 27.40625 69.09375 27.125 70 L 26.625 70 C 22.0625 70 18 73.421875 18 78 C 18 80.8125 19.507812 83.210938 21.75 84.625 C 19.132812 87.328125 17.148438 90.179688 16.3125 92.875 C 15.804688 94.507812 15.679688 96.21875 16.625 97.75 C 17.570312 99.28125 19.382812 100 21.375 100 L 78.625 100 C 80.585938 100 82.414062 99.28125 83.3125 97.75 C 84.210938 96.21875 84.070312 94.492188 83.5625 92.875 C 82.726562 90.195312 80.75 87.335938 78.1875 84.625 C 80.453125 83.210938 82 80.828125 82 78 C 82 73.421875 77.898438 70 73.1875 70 L 72.875 70 C 72.59375 69.09375 72.15625 68.273438 71.625 67.5625 C 70.734375 66.359375 69.695312 65.359375 68.5625 64.3125 C 66.429688 62.34375 64.070312 60.179688 62.1875 56.5 C 64.445312 55.09375 66 52.796875 66 50 C 66 48.726562 65.625 47.601562 65.0625 46.5625 C 68.03125 43.367188 70 38.664062 70 33 C 70 29.015625 68.085938 25.070312 65.625 21.375 C 63.164062 17.679688 60.101562 14.226562 57.4375 11.5625 C 57.382812 11.492188 57.320312 11.429688 57.25 11.375 C 57.726562 10.351562 58 9.203125 58 8 C 58 3.601562 54.398438 0 50 0 Z M 50 4 C 52.234375 4 54 5.765625 54 8 C 54 10.234375 52.234375 12 50 12 C 47.765625 12 46 10.234375 46 8 C 46 5.765625 47.765625 4 50 4 Z M 45.375 14.4375 C 46.695312 15.398438 48.257812 16 50 16 C 51.726562 16 53.3125 15.445312 54.625 14.5 C 57.148438 17.023438 60.09375 20.234375 62.3125 23.5625 C 64.554688 26.921875 66 30.390625 66 33 C 66 37.585938 64.4375 41.15625 62.3125 43.5625 C 60.789062 42.578125 58.929688 42 57 42 L 43 42 C 41.117188 42 39.3125 42.5625 37.8125 43.5 C 35.554688 40.882812 34 37.601562 34 32.8125 C 34 30.203125 35.492188 26.726562 37.75 23.375 C 39.953125 20.101562 42.796875 16.9375 45.375 14.4375 Z M 43 46 L 57 46 C 59.890625 46 62 47.851562 62 50 C 62 52.148438 59.890625 54 57 54 L 43 54 C 40.109375 54 38 52.148438 38 50 C 38 47.851562 40.109375 46 43 46 Z M 41.5 57.875 C 41.992188 57.953125 42.492188 58 43 58 L 57 58 C 57.484375 58 57.96875 57.945312 58.4375 57.875 C 60.679688 62.445312 63.609375 65.210938 65.8125 67.25 C 66.953125 68.304688 67.882812 69.1875 68.4375 69.9375 C 68.460938 69.96875 68.476562 69.976562 68.5 70 L 31.5 70 C 31.523438 69.976562 31.539062 69.96875 31.5625 69.9375 C 32.117188 69.1875 33.046875 68.3125 34.1875 67.25 C 36.367188 65.210938 39.273438 62.429688 41.5 57.875 Z M 26.625 74 L 73.1875 74 C 76.078125 74 78 75.773438 78 78 C 78 80.226562 76.015625 82 73.375 82 L 26.625 82 C 23.984375 82 22 80.226562 22 78 C 22 75.773438 23.984375 74 26.625 74 Z M 26.0625 85.9375 C 26.25 85.953125 26.4375 86 26.625 86 L 73.375 86 C 73.546875 86 73.703125 85.945312 73.875 85.9375 C 76.859375 88.75 79.046875 92.015625 79.6875 94.0625 C 80.007812 95.09375 79.921875 95.609375 79.875 95.6875 C 79.828125 95.765625 79.765625 96 78.625 96 L 21.375 96 C 20.171875 96 20.054688 95.773438 20 95.6875 C 19.945312 95.601562 19.804688 95.085938 20.125 94.0625 C 20.757812 92.039062 22.992188 88.75 26.0625 85.9375 Z M 26.0625 85.9375 "/>
  </g>
</svg>