<?xml version="1.0" encoding="UTF-8" standalone="yes"?>
<svg xmlns="http://www.w3.org/2000/svg" xmlns:xlink="http://www.w3.org/1999/xlink" width="100px" height="100px" viewBox="0 0 100 100" version="1.1" fill="#000000">
  <g id="surface437279">
    <path style=" stroke:none;fill-rule:nonzero;fill:#000000;fill-opacity:1;" d="M 50 0 C 45.601562 0 42 3.601562 42 8 C 42 9.492188 42.460938 10.859375 43.1875 12.0625 L 24.625 12.0625 C 22.953125 12.0625 21.265625 12.90625 20.5625 14.3125 C 19.859375 15.71875 19.992188 17.15625 20.375 18.625 C 21.132812 21.546875 23.125 24.789062 25.75 27.6875 L 25.75 27.75 L 28.75 31.0625 C 31.429688 34 34.59375 35.9375 37.625 35.9375 L 42 35.9375 C 42 35.960938 42 35.976562 42 36 C 42 38.195312 41.929688 40.179688 41.75 42 L 37 42 C 32.203125 42 28 45.429688 28 50 C 28 54.1875 31.539062 57.421875 35.8125 57.9375 C 34.078125 60.054688 32.21875 61.609375 30.5 63.25 C 28.59375 65.0625 26.835938 67.210938 26.25 70.0625 C 21.789062 70.28125 18 73.632812 18 78 C 18 80.757812 19.515625 83.132812 21.75 84.5625 C 19.171875 87.265625 17.195312 90.109375 16.375 92.8125 C 15.875 94.445312 15.765625 96.21875 16.6875 97.75 C 17.609375 99.28125 19.453125 100 21.4375 100 L 78.5625 100 C 80.546875 100 82.453125 99.28125 83.375 97.75 C 84.296875 96.21875 84.125 94.445312 83.625 92.8125 C 82.796875 90.109375 80.835938 87.265625 78.25 84.5625 C 80.484375 83.132812 82 80.757812 82 78 C 82 73.632812 78.210938 70.28125 73.75 70.0625 C 73.164062 67.21875 71.398438 65.0625 69.5 63.25 C 67.78125 61.617188 65.921875 60.054688 64.1875 57.9375 C 68.460938 57.421875 72 54.1875 72 50 C 72 45.421875 67.789062 42 63 42 L 58.3125 42 C 58.125 40.179688 58 38.210938 58 36 C 58 35.976562 58 35.960938 58 35.9375 L 62.375 35.9375 C 65.40625 35.9375 68.578125 34.007812 71.25 31.0625 L 74.25 27.75 C 76.890625 24.84375 78.875 21.554688 79.625 18.625 C 80 17.15625 80.148438 15.710938 79.4375 14.3125 C 78.726562 12.914062 77.046875 12.0625 75.375 12.0625 L 56.8125 12.0625 C 57.539062 10.859375 58 9.492188 58 8 C 58 3.601562 54.398438 0 50 0 Z M 50 4 C 52.234375 4 54 5.765625 54 8 C 54 10.234375 52.234375 12 50 12 C 47.765625 12 46 10.234375 46 8 C 46 5.765625 47.765625 4 50 4 Z M 24.625 15.9375 L 49.4375 15.9375 C 49.625 15.953125 49.8125 16 50 16 C 50.1875 16 50.375 15.953125 50.5625 15.9375 L 75.375 15.9375 C 76.117188 15.9375 75.960938 15.984375 76 16.0625 C 76.039062 16.140625 76.117188 16.726562 75.875 17.6875 C 75.382812 19.609375 73.734375 22.59375 71.4375 25.125 L 68.375 28.4375 C 66.273438 30.75 63.265625 32.0625 62.375 32.0625 L 37.625 32.0625 C 36.734375 32.0625 33.734375 30.75 31.625 28.4375 L 28.625 25.125 C 26.320312 22.59375 24.625 19.609375 24.125 17.6875 C 23.875 16.726562 23.960938 16.140625 24 16.0625 C 24.039062 15.984375 23.882812 15.9375 24.625 15.9375 Z M 46 35.9375 L 54 35.9375 C 54 35.960938 54 35.976562 54 36 C 54 38.171875 54.078125 40.140625 54.25 42 L 45.6875 42 C 45.867188 40.148438 46 38.164062 46 36 C 46 35.976562 46 35.960938 46 35.9375 Z M 37 46 L 63 46 C 65.9375 46 68 47.953125 68 50 C 68 52.046875 65.9375 54 63 54 L 37 54 C 34.0625 54 32 52.046875 32 50 C 32 47.953125 34.0625 46 37 46 Z M 40.6875 58 L 59.3125 58 C 61.804688 61.84375 64.695312 64.226562 66.75 66.1875 C 68.234375 67.59375 69.21875 68.640625 69.6875 70 L 30.3125 70 C 30.78125 68.648438 31.765625 67.601562 33.25 66.1875 C 35.3125 64.226562 38.195312 61.859375 40.6875 58 Z M 26.6875 74 L 73.3125 74 C 76.023438 74 78 75.890625 78 78 C 78 80.109375 76.015625 82 73.3125 82 L 26.6875 82 C 23.984375 82 22 80.109375 22 78 C 22 75.890625 23.984375 74 26.6875 74 Z M 26 85.9375 C 26.234375 85.953125 26.453125 86 26.6875 86 L 73.3125 86 C 73.546875 86 73.765625 85.953125 74 85.9375 C 76.976562 88.71875 79.1875 91.960938 79.8125 94 C 80.132812 95.03125 79.992188 95.59375 79.9375 95.6875 C 79.882812 95.78125 79.734375 96 78.5625 96 L 21.4375 96 C 20.265625 96 20.117188 95.78125 20.0625 95.6875 C 20.007812 95.59375 19.875 95.03125 20.1875 94 C 20.804688 91.960938 23.03125 88.71875 26 85.9375 Z M 26 85.9375 "/>
  </g>
</svg>