<?xml version="1.0" encoding="UTF-8" standalone="yes"?>
<svg xmlns="http://www.w3.org/2000/svg" xmlns:xlink="http://www.w3.org/1999/xlink" width="100px" height="100px" viewBox="0 0 100 100" version="1.1" fill="#000000">
  <g id="surface434460">
    <path style=" stroke:none;fill-rule:nonzero;fill:#000000;fill-opacity:1;" d="M 30 6 C 26.710938 6 24 8.710938 24 12 L 24 32 C 24 35.289062 26.710938 38 30 38 L 40 38 L 40 42.5 C 36.585938 43.585938 34 46.421875 34 50 C 34 52.726562 35.53125 55.007812 37.75 56.4375 C 35.882812 60.15625 33.507812 62.320312 31.375 64.3125 C 30.25 65.367188 29.195312 66.359375 28.3125 67.5625 C 27.789062 68.273438 27.34375 69.085938 27.0625 70 L 26.6875 70 C 22.03125 70 18 73.484375 18 78 C 18 80.757812 19.515625 83.132812 21.75 84.5625 C 19.171875 87.265625 17.195312 90.109375 16.375 92.8125 C 15.875 94.445312 15.765625 96.21875 16.6875 97.75 C 17.609375 99.28125 19.453125 100 21.4375 100 L 78.5625 100 C 80.546875 100 82.453125 99.28125 83.375 97.75 C 84.296875 96.21875 84.125 94.445312 83.625 92.8125 C 82.796875 90.109375 80.835938 87.265625 78.25 84.5625 C 80.484375 83.132812 82 80.757812 82 78 C 82 73.484375 77.96875 70 73.3125 70 L 72.9375 70 C 72.65625 69.09375 72.210938 68.273438 71.6875 67.5625 C 70.796875 66.359375 69.695312 65.375 68.5625 64.3125 C 66.445312 62.335938 64.109375 60.125 62.25 56.4375 C 64.46875 55.007812 66 52.726562 66 50 C 66 46.421875 63.414062 43.585938 60 42.5 L 60 38 L 70 38 C 73.289062 38 76 35.289062 76 32 L 76 12 C 76 8.710938 73.289062 6 70 6 L 66 6 C 64.898438 6 64 6.898438 64 8 L 64 16 C 64 16 63.945312 16.601562 63.6875 17.125 C 63.429688 17.648438 63.335938 18 62 18 C 60.664062 18 60.570312 17.648438 60.3125 17.125 C 60.054688 16.601562 60 16 60 16 L 60 8 C 60 6.898438 59.101562 6 58 6 L 42 6 C 40.898438 6 40 6.898438 40 8 L 40 16 C 40 16 39.945312 16.601562 39.6875 17.125 C 39.429688 17.648438 39.335938 18 38 18 C 36.664062 18 36.570312 17.648438 36.3125 17.125 C 36.054688 16.601562 36 16 36 16 L 36 8 C 36 6.898438 35.101562 6 34 6 Z M 30 10 L 32 10 L 32 16 C 32 16 31.945312 17.398438 32.6875 18.875 C 33.429688 20.351562 35.335938 22 38 22 C 40.664062 22 42.570312 20.351562 43.3125 18.875 C 44.054688 17.398438 44 16 44 16 L 44 10 L 56 10 L 56 16 C 56 16 55.945312 17.398438 56.6875 18.875 C 57.429688 20.351562 59.335938 22 62 22 C 64.664062 22 66.570312 20.351562 67.3125 18.875 C 68.054688 17.398438 68 16 68 16 L 68 10 L 70 10 C 71.117188 10 72 10.882812 72 12 L 72 32 C 72 33.117188 71.117188 34 70 34 L 58.375 34 C 58.109375 33.945312 57.828125 33.945312 57.5625 34 L 42.375 34 C 42.109375 33.945312 41.828125 33.945312 41.5625 34 L 30 34 C 28.882812 34 28 33.117188 28 32 L 28 12 C 28 10.882812 28.882812 10 30 10 Z M 44 38 L 56 38 L 56 42 L 44 42 Z M 43 46 L 57 46 C 59.9375 46 62 47.953125 62 50 C 62 52.046875 59.9375 54 57 54 L 43 54 C 40.0625 54 38 52.046875 38 50 C 38 47.953125 40.0625 46 43 46 Z M 41.4375 57.875 C 41.953125 57.960938 42.460938 58 43 58 L 57 58 C 57.539062 58 58.046875 57.960938 58.5625 57.875 C 60.765625 62.40625 63.632812 65.210938 65.8125 67.25 C 66.953125 68.3125 67.882812 69.179688 68.4375 69.9375 C 68.460938 69.96875 68.484375 69.976562 68.5 70 L 31.5 70 C 31.515625 69.976562 31.539062 69.96875 31.5625 69.9375 C 32.117188 69.1875 32.992188 68.3125 34.125 67.25 C 36.3125 65.203125 39.21875 62.4375 41.4375 57.875 Z M 26.6875 74 L 73.3125 74 C 76.023438 74 78 75.890625 78 78 C 78 80.109375 76.015625 82 73.3125 82 L 26.6875 82 C 23.984375 82 22 80.109375 22 78 C 22 75.890625 23.984375 74 26.6875 74 Z M 26 85.9375 C 26.234375 85.953125 26.453125 86 26.6875 86 L 73.3125 86 C 73.546875 86 73.765625 85.953125 74 85.9375 C 76.976562 88.71875 79.1875 91.960938 79.8125 94 C 80.132812 95.03125 79.992188 95.59375 79.9375 95.6875 C 79.882812 95.78125 79.734375 96 78.5625 96 L 21.4375 96 C 20.265625 96 20.117188 95.78125 20.0625 95.6875 C 20.007812 95.59375 19.875 95.03125 20.1875 94 C 20.804688 91.960938 23.03125 88.71875 26 85.9375 Z M 26 85.9375 "/>
  </g>
</svg>