<?xml version="1.0" encoding="UTF-8" standalone="yes"?>
<svg xmlns="http://www.w3.org/2000/svg" xmlns:xlink="http://www.w3.org/1999/xlink" width="100px" height="100px" viewBox="0 0 100 100" version="1.1" fill="#000000">
  <g id="surface434468">
    <path style=" stroke:none;fill-rule:nonzero;fill:#000000;fill-opacity:1;" d="M 50 14 C 41.1875 14 34 21.1875 34 30 C 34 35.070312 36.367188 39.5625 40.0625 42.5 C 36.617188 43.570312 34 46.40625 34 50 C 34 52.601562 35.382812 54.8125 37.4375 56.25 C 35.515625 60 33.085938 62.257812 30.875 64.25 C 29.6875 65.320312 28.554688 66.289062 27.625 67.5 C 27.0625 68.234375 26.601562 69.117188 26.3125 70.0625 C 21.828125 70.25 18 73.609375 18 78 C 18 80.757812 19.515625 83.132812 21.75 84.5625 C 19.171875 87.265625 17.195312 90.109375 16.375 92.8125 C 15.875 94.445312 15.765625 96.21875 16.6875 97.75 C 17.609375 99.28125 19.453125 100 21.4375 100 L 78.5625 100 C 80.546875 100 82.453125 99.28125 83.375 97.75 C 84.296875 96.21875 84.125 94.445312 83.625 92.8125 C 82.796875 90.109375 80.835938 87.265625 78.25 84.5625 C 80.484375 83.132812 82 80.757812 82 78 C 82 73.609375 78.179688 70.25 73.6875 70.0625 C 73.398438 69.117188 72.9375 68.234375 72.375 67.5 C 71.453125 66.289062 70.304688 65.3125 69.125 64.25 C 66.914062 62.25 64.492188 60.007812 62.5625 56.25 C 64.617188 54.8125 66 52.601562 66 50 C 66 46.398438 63.382812 43.570312 59.9375 42.5 C 63.632812 39.5625 66 35.070312 66 30 C 66 21.1875 58.8125 14 50 14 Z M 50 18 C 56.648438 18 62 23.351562 62 30 C 62 36.648438 56.648438 42 50 42 C 43.351562 42 38 36.648438 38 30 C 38 23.351562 43.351562 18 50 18 Z M 43 46 L 57 46 C 59.9375 46 62 47.953125 62 50 C 62 52.046875 59.9375 54 57 54 L 43 54 C 40.0625 54 38 52.046875 38 50 C 38 47.953125 40.0625 46 43 46 Z M 41.0625 57.8125 C 41.695312 57.9375 42.335938 58 43 58 L 57 58 C 57.648438 58 58.257812 57.929688 58.875 57.8125 C 61.15625 62.375 64.164062 65.203125 66.4375 67.25 C 67.625 68.320312 68.601562 69.179688 69.1875 69.9375 C 69.210938 69.96875 69.226562 69.976562 69.25 70 L 30.75 70 C 30.773438 69.976562 30.789062 69.96875 30.8125 69.9375 C 31.398438 69.171875 32.367188 68.265625 33.5625 67.1875 C 35.828125 65.148438 38.789062 62.328125 41.0625 57.8125 Z M 26.6875 74 L 73.3125 74 C 76.023438 74 78 75.890625 78 78 C 78 80.109375 76.015625 82 73.3125 82 L 26.6875 82 C 23.984375 82 22 80.109375 22 78 C 22 75.890625 23.984375 74 26.6875 74 Z M 26 85.9375 C 26.234375 85.953125 26.453125 86 26.6875 86 L 73.3125 86 C 73.546875 86 73.765625 85.953125 74 85.9375 C 76.976562 88.71875 79.1875 91.960938 79.8125 94 C 80.132812 95.03125 79.992188 95.59375 79.9375 95.6875 C 79.882812 95.78125 79.734375 96 78.5625 96 L 21.4375 96 C 20.265625 96 20.117188 95.78125 20.0625 95.6875 C 20.007812 95.59375 19.875 95.03125 20.1875 94 C 20.804688 91.960938 23.03125 88.71875 26 85.9375 Z M 26 85.9375 "/>
  </g>
</svg>