<?xml version="1.0" encoding="UTF-8" standalone="yes"?>
<svg xmlns="http://www.w3.org/2000/svg" xmlns:xlink="http://www.w3.org/1999/xlink" width="100px" height="100px" viewBox="0 0 100 100" version="1.1" fill="#000000">
  <g id="surface435975">
    <path style=" stroke:none;fill-rule:nonzero;fill:#000000;fill-opacity:1;" d="M 53.253906 2.113281 C 53.164062 2.117188 53.074219 2.125 52.984375 2.140625 C 47.453125 3.070312 44.101562 6.265625 42.289062 9.359375 C 41.382812 10.90625 40.824219 12.425781 40.445312 13.660156 C 40.136719 14.667969 39.992188 15.28125 39.894531 15.65625 C 37.0625 17.476562 33.804688 20.222656 31.28125 22.746094 C 24.011719 30.015625 21.46875 41.789062 25.789062 53.15625 C 27.242188 56.972656 30 61.574219 30 68 L 26.664062 68 C 22.011719 68 18 71.484375 18 76 C 18 76.289062 18.0625 76.574219 18.183594 76.835938 C 18.464844 79.207031 19.835938 81.222656 21.773438 82.511719 C 19.179688 85.230469 17.210938 88.117188 16.382812 90.832031 C 15.886719 92.464844 15.738281 94.207031 16.660156 95.738281 C 17.582031 97.269531 19.445312 98 21.429688 98 L 78.578125 98 C 80.5625 98 82.429688 97.269531 83.347656 95.734375 C 84.265625 94.199219 84.109375 92.457031 83.609375 90.824219 C 82.78125 88.125 80.824219 85.265625 78.25 82.5625 C 80.484375 81.132812 82 78.765625 82 76 C 82 75.710938 81.9375 75.425781 81.816406 75.164062 C 81.335938 71.085938 77.679688 68 73.332031 68 L 72 68 C 72 60.296875 67.359375 53.753906 62.957031 48.917969 C 60.875 46.632812 58.875 44.789062 57.3125 43.332031 C 58.617188 42.898438 59.664062 42.171875 60.5 41.527344 C 61.589844 40.691406 62.523438 40.28125 62.46875 40.28125 C 64.070312 40.28125 64.128906 40.617188 64.9375 41.53125 C 65.339844 41.988281 65.847656 42.628906 66.671875 43.1875 C 67.496094 43.746094 68.640625 44.132812 69.917969 44.132812 C 71.898438 44.132812 73.40625 42.972656 74.3125 41.914062 C 75.21875 40.855469 75.816406 39.773438 76.078125 39.453125 C 76.0625 39.472656 76.226562 39.332031 76.628906 39.144531 C 77.035156 38.957031 77.636719 38.742188 78.320312 38.253906 C 79.003906 37.765625 79.761719 36.804688 79.914062 35.671875 C 80.066406 34.539062 79.761719 33.4375 79.1875 32.175781 L 79.191406 32.175781 C 78.039062 29.644531 73.863281 21.5625 65.417969 18.070312 C 64.953125 17.878906 64.917969 17.804688 64.671875 17.40625 C 64.425781 17.007812 64.097656 16.226562 63.363281 15.363281 C 62.628906 14.5 61.46875 13.699219 59.882812 13.214844 C 58.664062 12.84375 56.816406 12.738281 54.894531 12.648438 C 54.871094 12.546875 54.867188 12.589844 54.851562 12.46875 C 54.765625 11.847656 54.71875 11.015625 54.726562 10.105469 C 54.738281 8.285156 54.949219 6.144531 55.277344 4.503906 C 55.398438 3.90625 55.238281 3.285156 54.84375 2.820312 C 54.449219 2.355469 53.863281 2.09375 53.253906 2.113281 Z M 51.015625 7.144531 C 50.921875 8.148438 50.734375 9.113281 50.726562 10.082031 C 50.71875 11.132812 50.765625 12.125 50.890625 13.023438 C 51.015625 13.921875 51.152344 14.714844 51.703125 15.566406 C 52.074219 16.136719 52.703125 16.476562 53.382812 16.476562 C 56.011719 16.476562 57.699219 16.730469 58.714844 17.039062 C 59.730469 17.347656 60.050781 17.640625 60.320312 17.957031 C 60.589844 18.273438 60.800781 18.761719 61.273438 19.519531 C 61.746094 20.277344 62.613281 21.242188 63.886719 21.769531 C 70.679688 24.582031 74.628906 31.808594 75.550781 33.835938 C 75.921875 34.644531 75.917969 34.976562 75.917969 35.039062 C 75.777344 35.128906 75.449219 35.28125 74.941406 35.515625 C 74.394531 35.769531 73.644531 36.121094 72.992188 36.90625 C 72.992188 36.90625 72.988281 36.910156 72.988281 36.910156 C 72.246094 37.808594 71.796875 38.703125 71.273438 39.316406 C 70.75 39.929688 70.453125 40.132812 69.917969 40.132812 C 69.332031 40.132812 69.160156 40.039062 68.921875 39.878906 C 68.683594 39.71875 68.382812 39.386719 67.9375 38.882812 C 67.046875 37.871094 65.242188 36.28125 62.46875 36.28125 C 60.378906 36.28125 59.160156 37.511719 58.0625 38.355469 C 56.964844 39.199219 55.984375 39.722656 55.824219 39.734375 C 55.296875 39.777344 55.101562 39.648438 54.597656 39.371094 C 54.472656 39.300781 54.332031 39.21875 54.066406 39.113281 C 53.800781 39.007812 53.296875 38.773438 52.488281 39.042969 C 51.679688 39.3125 51.195312 40.125 51.074219 40.550781 C 50.953125 40.976562 50.957031 41.238281 50.957031 41.515625 C 50.957031 42.425781 51.277344 42.761719 51.5 43.085938 C 51.722656 43.410156 51.960938 43.679688 52.230469 43.96875 C 52.773438 44.546875 53.457031 45.179688 54.257812 45.929688 C 55.863281 47.429688 57.941406 49.351562 60 51.613281 C 64.117188 56.136719 68 61.949219 68 68 L 34 68 C 34 60.425781 30.722656 54.871094 29.527344 51.734375 C 25.714844 41.707031 28.039062 31.648438 34.109375 25.574219 C 36.683594 23.003906 40.34375 19.863281 42.675781 18.488281 C 43.082031 18.246094 43.390625 17.871094 43.546875 17.421875 C 43.816406 16.644531 43.949219 15.878906 44.269531 14.828125 C 44.589844 13.777344 45.050781 12.5625 45.742188 11.382812 C 46.765625 9.636719 48.558594 8.1875 51.015625 7.144531 Z M 26.664062 72 L 73.332031 72 C 76.039062 72 78 73.890625 78 76 C 78 78.109375 76.042969 80 73.335938 80 L 26.664062 80 C 23.957031 80 22 78.109375 22 76 C 22 73.890625 23.957031 72 26.664062 72 Z M 73.992188 83.9375 C 76.96875 86.722656 79.160156 89.960938 79.785156 92 C 80.101562 93.035156 79.96875 93.585938 79.914062 93.679688 C 79.859375 93.773438 79.75 94 78.578125 94 L 21.429688 94 C 20.257812 94 20.148438 93.769531 20.089844 93.675781 C 20.03125 93.582031 19.894531 93.03125 20.210938 91.996094 C 20.832031 89.960938 23.011719 86.722656 25.976562 83.941406 C 26.207031 83.960938 26.429688 84 26.664062 84 L 73.335938 84 C 73.558594 84 73.773438 83.953125 73.992188 83.9375 Z M 73.992188 83.9375 "/>
  </g>
</svg>